<?xml version="1.0" encoding="UTF-8" standalone="no"?>
<!DOCTYPE svg PUBLIC "-//W3C//DTD SVG 1.1//EN" "http://www.w3.org/Graphics/SVG/1.1/DTD/svg11.dtd">
<svg width="100%" height="100%" viewBox="0 0 903 837" version="1.1" xmlns="http://www.w3.org/2000/svg" xmlns:xlink="http://www.w3.org/1999/xlink" xml:space="preserve" xmlns:serif="http://www.serif.com/" style="fill-rule:evenodd;clip-rule:evenodd;stroke-linejoin:round;stroke-miterlimit:2;">
    <g transform="matrix(1,0,0,1,-1102.26,-615.314)">
        <path d="M1303.91,1415.66C1317.72,1398.62 1330.1,1381.65 1340.82,1364.58C1362.61,1329.86 1377.7,1295.07 1388.93,1261.43C1420.15,1167.95 1415.53,1080.31 1391.21,1001.5C1376.99,955.441 1355.75,912.731 1332.24,873.255C1242.78,723.052 1109.55,624.518 1113,626L1113.04,625.898C1191.92,656.311 1248.31,690.578 1299.24,734.276C1330.51,761.111 1359.96,791.256 1390.72,826.708C1427.33,868.896 1465.76,918.579 1513.73,977.12C1518.55,983.022 1584.3,1045.46 1674.51,1052.94C1724.73,1057.11 1782.49,1044.1 1841.64,994.974C1845.44,991.768 1844.84,985.276 1843.8,978.287C1842,966.25 1837.05,952.744 1835.53,945.461C1833.59,936.161 1838.77,932.691 1843.07,933.504C1847.18,934.281 1850.75,935.468 1854.42,937.09C1860.38,939.716 1866.68,943.593 1876.73,948.884C1880.21,950.717 1884.26,949.537 1888.78,948.236C1896.62,945.975 1905.43,942.513 1914.77,942.314C1921.36,942.175 1928.19,943.561 1935.19,947.747C1946.67,954.624 1954.12,953.738 1959.42,953.383C1963.62,953.101 1966.98,953.352 1969.91,954.867C1973.65,956.799 1977.37,961.158 1980.25,972.437C1982.46,981.194 1988.45,996.67 1978.26,1013.47C1971.58,1024.49 1957.52,1036.38 1929.16,1046.77C1895.05,1059.26 1880.7,1098.19 1875.87,1145.9C1872.62,1178.09 1874.07,1214.29 1877.37,1249.89C1883.09,1311.68 1894.76,1371.62 1901.63,1405.32C1904.26,1418.25 1906.14,1427.34 1906.6,1431.24C1907.06,1435.25 1905.45,1435.59 1904.17,1433.55C1898,1423.79 1892.11,1414.31 1886.01,1405.38C1883.27,1401.37 1880.42,1397.53 1877.66,1393.7C1828.8,1326.04 1787.54,1280.65 1752.6,1249.93C1685.87,1191.26 1642.75,1187.07 1614.35,1182.98C1610.1,1182.37 1605.56,1182.56 1600.75,1183.12C1594.17,1183.9 1587.08,1185.5 1579.61,1188.09C1556.59,1196.08 1530.12,1212.17 1502.63,1232.39C1461.02,1263 1417.09,1302.88 1379.89,1339.84C1348.51,1371.02 1321.92,1400.09 1304.85,1419.09C1296,1428.94 1289.74,1436.11 1286.78,1439.53L1285.15,1441.43L1284.88,1441.76C1284.81,1441.83 1284.74,1441.9 1284.67,1441.96C1283.92,1442.68 1283.35,1442.63 1283.03,1442.27C1282.51,1442.06 1282.28,1441.47 1282.96,1440.47C1283.01,1440.39 1283.06,1440.31 1283.12,1440.24L1283.14,1440.22L1283.22,1440.11C1283.48,1439.79 1284.07,1439.08 1284.96,1438C1287.86,1434.5 1293.98,1427.19 1302.64,1417.14L1303.91,1415.66ZM1113.11,626.164C1190.19,659.196 1244.84,695.247 1293.84,740.348C1323.84,767.963 1351.42,799.193 1381.29,834.76C1417.17,877.478 1456.31,926.453 1504.27,984.88C1509.37,991.063 1578.67,1056.78 1673.6,1064.2C1726.19,1068.31 1786.67,1054.7 1848.36,1003.03C1853.78,998.555 1855.65,990.399 1854.88,980.837C1853.94,969.143 1849.35,955.171 1847.14,946.305C1848.03,946.643 1848.91,947.016 1849.8,947.42C1855.55,950.03 1861.59,953.88 1871.27,959.116C1877.21,962.329 1884.2,961.726 1891.98,959.581C1898.93,957.662 1906.7,954.471 1914.96,954.391C1919.44,954.348 1924.09,955.347 1928.81,958.253C1941.02,965.754 1949.8,966.374 1956.39,966.176C1959.65,966.078 1962.07,965.092 1964.01,966.126C1964.56,966.418 1964.83,967.093 1965.28,967.993C1966.16,969.785 1966.94,972.243 1967.75,975.563C1969.39,982.215 1974.75,993.946 1967.08,1006.73C1961.39,1016.21 1949.08,1025.99 1924.84,1035.23C1887.2,1049.58 1869.82,1091.91 1865.24,1144.9C1862.41,1177.75 1864.11,1214.67 1868.45,1250.84C1875.88,1312.74 1890.57,1372.39 1898.69,1405.98C1901.45,1417.41 1903.49,1425.8 1904.29,1430.18C1898.33,1421.44 1892.38,1413.09 1886.78,1404.86C1884.05,1400.84 1881.47,1396.8 1878.85,1392.88C1832.15,1323.06 1792.25,1275.94 1758.2,1243.78C1690.89,1180.21 1646,1174.5 1616.58,1169.2C1607.99,1167.77 1598.36,1168.3 1587.99,1170.89C1561.29,1177.56 1529.18,1197.49 1495.97,1223.65C1455.08,1255.86 1412.58,1297.89 1376.14,1336.18C1353.38,1360.11 1333,1382.56 1317.18,1400.48C1325.82,1388.53 1333.84,1376.65 1341.38,1364.94C1363.73,1330.27 1381.66,1296.69 1394,1263.21C1428.72,1168.96 1425,1079.13 1401.56,998.404C1387.84,951.143 1367.59,906.701 1343.12,866.685C1311.85,815.559 1274.13,771.616 1238.99,735.362C1174.25,668.569 1116.63,629.125 1113.11,626.164Z"/>
    </g>
</svg>
